<mxfile modified="2020-08-22T14:08:50.981Z" host="app.diagrams.net" agent="5.0 (Windows NT 10.0; Win64; x64) AppleWebKit/537.36 (KHTML, like Gecko) Chrome/84.0.4147.125 Safari/537.36 Edg/84.0.522.61" etag="YP0bch0kMDBSW-0LDf5Q" version="13.6.4" type="github">
  <diagram id="l8hXMBHkgcEJcSW0mbfh" name="ABAC">
    <mxGraphModel dx="1022" dy="514" grid="1" gridSize="10" guides="1" tooltips="1" connect="1" arrows="1" fold="1" page="1" pageScale="1" pageWidth="1169" pageHeight="827" math="0" shadow="0">
      <root>
        <mxCell id="0" />
        <mxCell id="1" parent="0" />
        <mxCell id="8--HhbSZYtI3ddgJnD71-28" style="edgeStyle=none;rounded=0;orthogonalLoop=1;jettySize=auto;html=1;sourcePerimeterSpacing=5;endArrow=none;endFill=0;targetPerimeterSpacing=5;" parent="1" edge="1">
          <mxGeometry relative="1" as="geometry">
            <mxPoint x="737" y="246.3809523809524" as="sourcePoint" />
            <mxPoint x="805" y="181.6190476190476" as="targetPoint" />
          </mxGeometry>
        </mxCell>
        <mxCell id="8--HhbSZYtI3ddgJnD71-29" style="edgeStyle=none;rounded=0;orthogonalLoop=1;jettySize=auto;html=1;sourcePerimeterSpacing=5;endArrow=none;endFill=0;targetPerimeterSpacing=5;" parent="1" edge="1">
          <mxGeometry relative="1" as="geometry">
            <mxPoint x="737" y="269.5612244897959" as="sourcePoint" />
            <mxPoint x="875" y="248.4387755102041" as="targetPoint" />
          </mxGeometry>
        </mxCell>
        <mxCell id="8--HhbSZYtI3ddgJnD71-30" style="edgeStyle=none;rounded=0;orthogonalLoop=1;jettySize=auto;html=1;sourcePerimeterSpacing=5;endArrow=none;endFill=0;targetPerimeterSpacing=5;" parent="1" edge="1">
          <mxGeometry relative="1" as="geometry">
            <mxPoint x="737" y="287.33333333333337" as="sourcePoint" />
            <mxPoint x="853" y="340.66666666666663" as="targetPoint" />
          </mxGeometry>
        </mxCell>
        <mxCell id="fFKoHXhiIrBONr0l0UaM-2" value="" style="edgeStyle=orthogonalEdgeStyle;rounded=0;orthogonalLoop=1;jettySize=auto;html=1;" edge="1" parent="1" source="8--HhbSZYtI3ddgJnD71-16" target="fFKoHXhiIrBONr0l0UaM-1">
          <mxGeometry relative="1" as="geometry" />
        </mxCell>
        <mxCell id="8--HhbSZYtI3ddgJnD71-16" value="主体" style="shape=image;verticalLabelPosition=bottom;verticalAlign=top;imageAspect=0;aspect=fixed;image=data:image/svg+xml,PHN2ZyB4bWxucz0iaHR0cDovL3d3dy53My5vcmcvMjAwMC9zdmciIHZlcnNpb249IjEiIHZpZXdCb3g9IjAgMCA0OCA0OCIgZW5hYmxlLWJhY2tncm91bmQ9Im5ldyAwIDAgNDggNDgiPiYjeGE7ICAgIDxwb2x5Z29uIGZpbGw9IiNGRjk4MDAiIHBvaW50cz0iMjQsMzcgMTksMzEgMTksMjUgMjksMjUgMjksMzEiLz4mI3hhOyAgICA8ZyBmaWxsPSIjRkZBNzI2Ij4mI3hhOyAgICAgICAgPGNpcmNsZSBjeD0iMzMiIGN5PSIxOSIgcj0iMiIvPiYjeGE7ICAgICAgICA8Y2lyY2xlIGN4PSIxNSIgY3k9IjE5IiByPSIyIi8+JiN4YTsgICAgPC9nPiYjeGE7ICAgIDxwYXRoIGZpbGw9IiNGRkI3NEQiIGQ9Ik0zMywxM2MwLTcuNi0xOC01LTE4LDBjMCwxLjEsMCw1LjksMCw3YzAsNSw0LDksOSw5czktNCw5LTlDMzMsMTguOSwzMywxNC4xLDMzLDEzeiIvPiYjeGE7ICAgIDxwYXRoIGZpbGw9IiM0MjQyNDIiIGQ9Ik0yNCw0Yy02LjEsMC0xMCw0LjktMTAsMTFjMCwwLjgsMCwyLjMsMCwyLjNsMiwxLjd2LTVsMTItNGw0LDR2NWwyLTEuN2MwLDAsMC0xLjUsMC0yLjNjMC00LTEtOC02LTlsLTEtMiBIMjR6Ii8+JiN4YTsgICAgPGcgZmlsbD0iIzc4NDcxOSI+JiN4YTsgICAgICAgIDxjaXJjbGUgY3g9IjI4IiBjeT0iMTkiIHI9IjEiLz4mI3hhOyAgICAgICAgPGNpcmNsZSBjeD0iMjAiIGN5PSIxOSIgcj0iMSIvPiYjeGE7ICAgIDwvZz4mI3hhOyAgICA8cG9seWdvbiBmaWxsPSIjZmZmIiBwb2ludHM9IjI0LDQzIDE5LDMxIDI0LDMyIDI5LDMxIi8+JiN4YTsgICAgPHBvbHlnb24gZmlsbD0iI0QzMkYyRiIgcG9pbnRzPSIyMywzNSAyMi4zLDM5LjUgMjQsNDMuNSAyNS43LDM5LjUgMjUsMzUgMjYsMzQgMjQsMzIgMjIsMzQiLz4mI3hhOyAgICA8cGF0aCBmaWxsPSIjNTQ2RTdBIiBkPSJNMjksMzFMMjksMzFsLTUsMTJsLTUtMTJjMCwwLTExLDItMTEsMTNoMzJDNDAsMzMsMjksMzEsMjksMzF6Ii8+JiN4YTs8L3N2Zz4=;labelBackgroundColor=#ffffff;" parent="1" vertex="1">
          <mxGeometry x="60" y="220" width="48" height="48" as="geometry" />
        </mxCell>
        <mxCell id="fFKoHXhiIrBONr0l0UaM-1" value="主体的属性" style="ellipse;whiteSpace=wrap;html=1;aspect=fixed;verticalAlign=bottom;spacingBottom=7;" vertex="1" parent="1">
          <mxGeometry x="150" y="179" width="130" height="130" as="geometry" />
        </mxCell>
        <mxCell id="fFKoHXhiIrBONr0l0UaM-3" value="" style="shape=image;verticalLabelPosition=bottom;verticalAlign=top;imageAspect=0;aspect=fixed;image=data:image/svg+xml,PHN2ZyB4bWxucz0iaHR0cDovL3d3dy53My5vcmcvMjAwMC9zdmciIHZlcnNpb249IjEiIHZpZXdCb3g9IjAgMCA0OCA0OCIgZW5hYmxlLWJhY2tncm91bmQ9Im5ldyAwIDAgNDggNDgiPiYjeGE7ICAgIDxwb2x5Z29uIGZpbGw9IiNGRjk4MDAiIHBvaW50cz0iMjQsMzcgMTksMzEgMTksMjUgMjksMjUgMjksMzEiLz4mI3hhOyAgICA8ZyBmaWxsPSIjRkZBNzI2Ij4mI3hhOyAgICAgICAgPGNpcmNsZSBjeD0iMzMiIGN5PSIxOSIgcj0iMiIvPiYjeGE7ICAgICAgICA8Y2lyY2xlIGN4PSIxNSIgY3k9IjE5IiByPSIyIi8+JiN4YTsgICAgPC9nPiYjeGE7ICAgIDxwYXRoIGZpbGw9IiNGRkI3NEQiIGQ9Ik0zMywxM2MwLTcuNi0xOC01LTE4LDBjMCwxLjEsMCw1LjksMCw3YzAsNSw0LDksOSw5czktNCw5LTlDMzMsMTguOSwzMywxNC4xLDMzLDEzeiIvPiYjeGE7ICAgIDxwYXRoIGZpbGw9IiM0MjQyNDIiIGQ9Ik0yNCw0Yy02LjEsMC0xMCw0LjktMTAsMTFjMCwwLjgsMCwyLjMsMCwyLjNsMiwxLjd2LTVsMTItNGw0LDR2NWwyLTEuN2MwLDAsMC0xLjUsMC0yLjNjMC00LTEtOC02LTlsLTEtMiBIMjR6Ii8+JiN4YTsgICAgPGcgZmlsbD0iIzc4NDcxOSI+JiN4YTsgICAgICAgIDxjaXJjbGUgY3g9IjI4IiBjeT0iMTkiIHI9IjEiLz4mI3hhOyAgICAgICAgPGNpcmNsZSBjeD0iMjAiIGN5PSIxOSIgcj0iMSIvPiYjeGE7ICAgIDwvZz4mI3hhOyAgICA8cG9seWdvbiBmaWxsPSIjZmZmIiBwb2ludHM9IjI0LDQzIDE5LDMxIDI0LDMyIDI5LDMxIi8+JiN4YTsgICAgPHBvbHlnb24gZmlsbD0iI0QzMkYyRiIgcG9pbnRzPSIyMywzNSAyMi4zLDM5LjUgMjQsNDMuNSAyNS43LDM5LjUgMjUsMzUgMjYsMzQgMjQsMzIgMjIsMzQiLz4mI3hhOyAgICA8cGF0aCBmaWxsPSIjNTQ2RTdBIiBkPSJNMjksMzFMMjksMzFsLTUsMTJsLTUtMTJjMCwwLTExLDItMTEsMTNoMzJDNDAsMzMsMjksMzEsMjksMzF6Ii8+JiN4YTs8L3N2Zz4=;labelBackgroundColor=#ffffff;" vertex="1" parent="1">
          <mxGeometry x="170" y="220" width="48" height="48" as="geometry" />
        </mxCell>
        <mxCell id="fFKoHXhiIrBONr0l0UaM-6" value="" style="edgeStyle=orthogonalEdgeStyle;rounded=0;orthogonalLoop=1;jettySize=auto;html=1;" edge="1" parent="1" target="fFKoHXhiIrBONr0l0UaM-5">
          <mxGeometry relative="1" as="geometry">
            <mxPoint x="280" y="244" as="sourcePoint" />
          </mxGeometry>
        </mxCell>
        <mxCell id="fFKoHXhiIrBONr0l0UaM-4" value="" style="shape=image;verticalLabelPosition=bottom;verticalAlign=top;imageAspect=0;aspect=fixed;image=data:image/svg+xml,PHN2ZyB4bWxucz0iaHR0cDovL3d3dy53My5vcmcvMjAwMC9zdmciIHZlcnNpb249IjEiIHZpZXdCb3g9IjAgMCA0OCA0OCIgZW5hYmxlLWJhY2tncm91bmQ9Im5ldyAwIDAgNDggNDgiPiYjeGE7ICAgIDxyZWN0IHg9IjciIHk9IjQiIGZpbGw9IiNCQkRFRkIiIHdpZHRoPSIzNCIgaGVpZ2h0PSI0MCIvPiYjeGE7ICAgIDxnIGZpbGw9IiMyMTk2RjMiPiYjeGE7ICAgICAgICA8cmVjdCB4PSIxMyIgeT0iMjYiIHdpZHRoPSI0IiBoZWlnaHQ9IjQiLz4mI3hhOyAgICAgICAgPHJlY3QgeD0iMTMiIHk9IjE4IiB3aWR0aD0iNCIgaGVpZ2h0PSI0Ii8+JiN4YTsgICAgICAgIDxyZWN0IHg9IjEzIiB5PSIzNCIgd2lkdGg9IjQiIGhlaWdodD0iNCIvPiYjeGE7ICAgICAgICA8cmVjdCB4PSIxMyIgeT0iMTAiIHdpZHRoPSI0IiBoZWlnaHQ9IjQiLz4mI3hhOyAgICAgICAgPHJlY3QgeD0iMjEiIHk9IjI2IiB3aWR0aD0iMTQiIGhlaWdodD0iNCIvPiYjeGE7ICAgICAgICA8cmVjdCB4PSIyMSIgeT0iMTgiIHdpZHRoPSIxNCIgaGVpZ2h0PSI0Ii8+JiN4YTsgICAgICAgIDxyZWN0IHg9IjIxIiB5PSIzNCIgd2lkdGg9IjE0IiBoZWlnaHQ9IjQiLz4mI3hhOyAgICAgICAgPHJlY3QgeD0iMjEiIHk9IjEwIiB3aWR0aD0iMTQiIGhlaWdodD0iNCIvPiYjeGE7ICAgIDwvZz4mI3hhOzwvc3ZnPg==" vertex="1" parent="1">
          <mxGeometry x="224" y="220" width="48" height="48" as="geometry" />
        </mxCell>
        <mxCell id="fFKoHXhiIrBONr0l0UaM-5" value="基于属性的访问控制策略&lt;br&gt;&lt;br&gt;策略决策点&lt;br&gt;&lt;br&gt;策略实施点" style="rounded=0;whiteSpace=wrap;html=1;" vertex="1" parent="1">
          <mxGeometry x="334" y="193" width="162" height="102" as="geometry" />
        </mxCell>
        <mxCell id="fFKoHXhiIrBONr0l0UaM-8" value="" style="edgeStyle=orthogonalEdgeStyle;rounded=0;orthogonalLoop=1;jettySize=auto;html=1;" edge="1" parent="1" source="fFKoHXhiIrBONr0l0UaM-7" target="fFKoHXhiIrBONr0l0UaM-5">
          <mxGeometry relative="1" as="geometry" />
        </mxCell>
        <mxCell id="fFKoHXhiIrBONr0l0UaM-7" value="环境条件" style="ellipse;whiteSpace=wrap;html=1;aspect=fixed;verticalAlign=bottom;spacingBottom=7;" vertex="1" parent="1">
          <mxGeometry x="350" y="20" width="130" height="130" as="geometry" />
        </mxCell>
        <mxCell id="fFKoHXhiIrBONr0l0UaM-9" value="" style="shape=image;verticalLabelPosition=bottom;verticalAlign=top;imageAspect=0;aspect=fixed;image=data:image/svg+xml,PHN2ZyB4bWxucz0iaHR0cDovL3d3dy53My5vcmcvMjAwMC9zdmciIHZlcnNpb249IjEiIHZpZXdCb3g9IjAgMCA0OCA0OCIgZW5hYmxlLWJhY2tncm91bmQ9Im5ldyAwIDAgNDggNDgiPiYjeGE7ICAgIDxwYXRoIGZpbGw9IiNDRkQ4REMiIGQ9Ik0xMiw0MFYyMGgzMnYyMGMwLDIuMi0xLjgsNC00LDRIMTZDMTMuOCw0NCwxMiw0Mi4yLDEyLDQweiIvPiYjeGE7ICAgIDxwYXRoIGZpbGw9IiM3ODkwOUMiIGQ9Ik00NCwxNnY2SDEydi02YzAtMi4yLDEuOC00LDQtNGgyNEM0Mi4yLDEyLDQ0LDEzLjgsNDQsMTZ6Ii8+JiN4YTsgICAgPGcgZmlsbD0iIzM3NDc0RiI+JiN4YTsgICAgICAgIDxjaXJjbGUgY3g9IjM3IiBjeT0iMTYiIHI9IjMiLz4mI3hhOyAgICAgICAgPGNpcmNsZSBjeD0iMjAiIGN5PSIxNiIgcj0iMyIvPiYjeGE7ICAgIDwvZz4mI3hhOyAgICA8ZyBmaWxsPSIjQjBCRUM1Ij4mI3hhOyAgICAgICAgPHBhdGggZD0iTTM3LDEwYy0xLjEsMC0yLDAuOS0yLDJ2NGMwLDEuMSwwLjksMiwyLDJzMi0wLjksMi0ydi00QzM5LDEwLjksMzguMSwxMCwzNywxMHoiLz4mI3hhOyAgICAgICAgPHBhdGggZD0iTTIwLDEwYy0xLjEsMC0yLDAuOS0yLDJ2NGMwLDEuMSwwLjksMiwyLDJzMi0wLjksMi0ydi00QzIyLDEwLjksMjEuMSwxMCwyMCwxMHoiLz4mI3hhOyAgICA8L2c+JiN4YTsgICAgPHJlY3QgeD0iMzIiIHk9IjM0IiBmaWxsPSIjOTBBNEFFIiB3aWR0aD0iNCIgaGVpZ2h0PSI0Ii8+JiN4YTsgICAgPHJlY3QgeD0iMjYiIHk9IjM0IiBmaWxsPSIjOTBBNEFFIiB3aWR0aD0iNCIgaGVpZ2h0PSI0Ii8+JiN4YTsgICAgPHJlY3QgeD0iMjAiIHk9IjM0IiBmaWxsPSIjOTBBNEFFIiB3aWR0aD0iNCIgaGVpZ2h0PSI0Ii8+JiN4YTsgICAgPHJlY3QgeD0iMzIiIHk9IjI4IiBmaWxsPSIjOTBBNEFFIiB3aWR0aD0iNCIgaGVpZ2h0PSI0Ii8+JiN4YTsgICAgPHJlY3QgeD0iMjYiIHk9IjI4IiBmaWxsPSIjOTBBNEFFIiB3aWR0aD0iNCIgaGVpZ2h0PSI0Ii8+JiN4YTsgICAgPHJlY3QgeD0iMjAiIHk9IjI4IiBmaWxsPSIjOTBBNEFFIiB3aWR0aD0iNCIgaGVpZ2h0PSI0Ii8+JiN4YTsgICAgPGNpcmNsZSBmaWxsPSIjRjQ0MzM2IiBjeD0iMTYiIGN5PSIxNSIgcj0iMTIiLz4mI3hhOyAgICA8Y2lyY2xlIGZpbGw9IiNlZWUiIGN4PSIxNiIgY3k9IjE1IiByPSI5Ii8+JiN4YTsgICAgPHJlY3QgeD0iMTUiIHk9IjgiIHdpZHRoPSIyIiBoZWlnaHQ9IjciLz4mI3hhOyAgICA8cmVjdCB4PSIxNi45IiB5PSIxNC4yIiB0cmFuc2Zvcm09Im1hdHJpeCgtLjcwNyAuNzA3IC0uNzA3IC0uNzA3IDQyLjUwNiAxNi4xOTIpIiB3aWR0aD0iMS45IiBoZWlnaHQ9IjUuNCIvPiYjeGE7ICAgIDxjaXJjbGUgY3g9IjE2IiBjeT0iMTUiIHI9IjEuNSIvPiYjeGE7PC9zdmc+" vertex="1" parent="1">
          <mxGeometry x="360" y="61" width="48" height="48" as="geometry" />
        </mxCell>
        <mxCell id="fFKoHXhiIrBONr0l0UaM-10" value="" style="shape=image;verticalLabelPosition=bottom;verticalAlign=top;imageAspect=0;aspect=fixed;image=data:image/svg+xml,PHN2ZyB4bWxucz0iaHR0cDovL3d3dy53My5vcmcvMjAwMC9zdmciIHZlcnNpb249IjEiIHZpZXdCb3g9IjAgMCA0OCA0OCIgZW5hYmxlLWJhY2tncm91bmQ9Im5ldyAwIDAgNDggNDgiPiYjeGE7ICAgIDxwYXRoIGZpbGw9IiM3Q0IzNDIiIGQ9Ik0yNCw0QzEzLDQsNCwxMyw0LDI0czksMjAsMjAsMjBzMjAtOSwyMC0yMFMzNSw0LDI0LDR6Ii8+JiN4YTsgICAgPHBhdGggZmlsbD0iIzAyNzdCRCIgZD0iTTQ1LDI0YzAsMTEuNy05LjUsMjEtMjEsMjFTMywzNS43LDMsMjRTMTIuMywzLDI0LDNTNDUsMTIuMyw0NSwyNHogTTIzLjgsMzMuN2MwLTAuNC0wLjItMC42LTAuNi0wLjggYy0xLjMtMC40LTIuNS0wLjQtMy42LTEuNWMtMC4yLTAuNC0wLjItMC44LTAuNC0xLjNjLTAuNC0wLjQtMS41LTAuNi0yLjEtMC44Yy0wLjgsMC0xLjcsMC0yLjcsMGMtMC40LDAtMS4xLDAtMS41LDAgYy0wLjYtMC4yLTEuMS0xLjEtMS41LTEuN2MwLTAuMiwwLTAuNi0wLjQtMC42Yy0wLjQtMC4yLTAuOCwwLjItMS4zLDBjLTAuMi0wLjItMC4yLTAuNC0wLjItMC42YzAtMC42LDAuNC0xLjMsMC44LTEuNyBjMC42LTAuNCwxLjMsMC4yLDEuOSwwLjJjMC4yLDAsMC4yLDAsMC40LDAuMmMwLjYsMC4yLDAuOCwxLDAuOCwxLjdjMCwwLjIsMCwwLjQsMCwwLjRjMCwwLjIsMC4yLDAuMiwwLjQsMC4yIGMwLjItMS4xLDAuMi0yLjEsMC40LTMuMmMwLTEuMywxLjMtMi41LDIuMy0yLjljMC40LTAuMiwwLjYsMC4yLDEuMSwwYzEuMy0wLjQsNC40LTEuNywzLjgtMy40Yy0wLjQtMS41LTEuNy0yLjktMy40LTIuNyBjLTAuNCwwLjItMC42LDAuNC0xLDAuNmMtMC42LDAuNC0xLjksMS43LTIuNSwxLjdjLTEuMS0wLjItMS4xLTEuNy0wLjgtMi4zYzAuMi0wLjgsMi4xLTMuNiwzLjQtMy4xYzAuMiwwLjIsMC42LDAuNiwwLjgsMC44IGMwLjQsMC4yLDEuMSwwLjIsMS43LDAuMmMwLjIsMCwwLjQsMCwwLjYtMC4yYzAuMi0wLjIsMC4yLTAuMiwwLjItMC40YzAtMC42LTAuNi0xLjMtMS0xLjdjLTAuNC0wLjQtMS4xLTAuOC0xLjctMS4xIGMtMi4xLTAuNi01LjUsMC4yLTcuMSwxLjdzLTIuOSw0LTMuOCw2LjFjLTAuNCwxLjMtMC44LDIuOS0xLDQuNGMtMC4yLDEtMC40LDEuOSwwLjIsMi45YzAuNiwxLjMsMS45LDIuNSwzLjIsMy40IGMwLjgsMC42LDIuNSwwLjYsMy40LDEuN2MwLjYsMC44LDAuNCwxLjksMC40LDIuOWMwLDEuMywwLjgsMi4zLDEuMywzLjRjMC4yLDAuNiwwLjQsMS41LDAuNiwyLjFjMCwwLjIsMC4yLDEuNSwwLjIsMS43IGMxLjMsMC42LDIuMywxLjMsMy44LDEuN2MwLjIsMCwxLTEuMywxLTEuNWMwLjYtMC42LDEuMS0xLjUsMS43LTEuOWMwLjQtMC4yLDAuOC0wLjQsMS4zLTAuOGMwLjQtMC40LDAuNi0xLjMsMC44LTEuOSBDMjMuOCwzNS4xLDI0LDM0LjMsMjMuOCwzMy43eiBNMjQuMiwxNC4zYzAuMiwwLDAuNC0wLjIsMC44LTAuNGMwLjYtMC40LDEuMy0xLjEsMS45LTEuNWMwLjYtMC40LDEuMy0xLjEsMS43LTEuNSBjMC42LTAuNCwxLjEtMS4zLDEuMy0xLjljMC4yLTAuNCwwLjgtMS4zLDAuNi0xLjljLTAuMi0wLjQtMS4zLTAuNi0xLjctMC44Yy0xLjctMC40LTMuMS0wLjYtNC44LTAuNmMtMC42LDAtMS41LDAuMi0xLjcsMC44IGMtMC4yLDEuMSwwLjYsMC44LDEuNSwxLjFjMCwwLDAuMiwxLjcsMC4yLDEuOWMwLjIsMS0wLjQsMS43LTAuNCwyLjdjMCwwLjYsMCwxLjcsMC40LDIuMUwyNC4yLDE0LjN6IE00MS44LDI5IGMwLjItMC40LDAuMi0xLjEsMC40LTEuNWMwLjItMSwwLjItMi4xLDAuMi0zLjFjMC0yLjEtMC4yLTQuMi0wLjgtNi4xYy0wLjQtMC42LTAuNi0xLjMtMC44LTEuOWMtMC40LTEuMS0xLTIuMS0xLjktMi45IGMtMC44LTEuMS0xLjktNC0zLjgtMy4xYy0wLjYsMC4yLTEsMS0xLjUsMS41Yy0wLjQsMC42LTAuOCwxLjMtMS4zLDEuOWMtMC4yLDAuMi0wLjQsMC42LTAuMiwwLjhjMCwwLjIsMC4yLDAuMiwwLjQsMC4yIGMwLjQsMC4yLDAuNiwwLjIsMSwwLjRjMC4yLDAsMC40LDAuMiwwLjIsMC40YzAsMCwwLDAuMi0wLjIsMC4yYy0xLDEuMS0yLjEsMS45LTMuMSwyLjljLTAuMiwwLjItMC40LDAuNi0wLjQsMC44IGMwLDAuMiwwLjIsMC4yLDAuMiwwLjRjMCwwLjItMC4yLDAuMi0wLjQsMC40Yy0wLjQsMC4yLTAuOCwwLjQtMS4xLDAuNmMtMC4yLDAuNCwwLDEuMS0wLjIsMS41Yy0wLjIsMS4xLTAuOCwxLjktMS4zLDIuOSBjLTAuNCwwLjYtMC42LDEuMy0xLDEuOWMwLDAuOC0wLjIsMS41LDAuMiwyLjFjMSwxLjUsMi45LDAuNiw0LjQsMS4zYzAuNCwwLjIsMC44LDAuMiwxLjEsMC42YzAuNiwwLjYsMC42LDEuNywwLjgsMi4zIGMwLjIsMC44LDAuNCwxLjcsMC44LDIuNWMwLjIsMSwwLjYsMi4xLDAuOCwyLjljMS45LTEuNSwzLjYtMy4xLDQuOC01LjJDNDAuNiwzMi40LDQxLjIsMzAuNyw0MS44LDI5eiIvPiYjeGE7PC9zdmc+" vertex="1" parent="1">
          <mxGeometry x="420" y="61" width="48" height="48" as="geometry" />
        </mxCell>
        <mxCell id="fFKoHXhiIrBONr0l0UaM-14" value="" style="edgeStyle=orthogonalEdgeStyle;rounded=0;orthogonalLoop=1;jettySize=auto;html=1;" edge="1" parent="1" source="fFKoHXhiIrBONr0l0UaM-11" target="fFKoHXhiIrBONr0l0UaM-5">
          <mxGeometry relative="1" as="geometry" />
        </mxCell>
        <mxCell id="fFKoHXhiIrBONr0l0UaM-11" value="访问控制规则" style="ellipse;whiteSpace=wrap;html=1;aspect=fixed;verticalAlign=bottom;spacingBottom=10;" vertex="1" parent="1">
          <mxGeometry x="350" y="340" width="130" height="130" as="geometry" />
        </mxCell>
        <mxCell id="fFKoHXhiIrBONr0l0UaM-15" value="" style="shape=image;verticalLabelPosition=bottom;verticalAlign=top;imageAspect=0;aspect=fixed;image=data:image/svg+xml,PHN2ZyB4bWxucz0iaHR0cDovL3d3dy53My5vcmcvMjAwMC9zdmciIHZlcnNpb249IjEiIHZpZXdCb3g9IjAgMCA0OCA0OCIgZW5hYmxlLWJhY2tncm91bmQ9Im5ldyAwIDAgNDggNDgiPiYjeGE7ICAgIDxwb2x5Z29uIGZpbGw9IiM0M0EwNDciIHBvaW50cz0iNDAuNiwxMi4xIDE3LDM1LjcgNy40LDI2LjEgNC42LDI5IDE3LDQxLjMgNDMuNCwxNC45Ii8+JiN4YTs8L3N2Zz4=" vertex="1" parent="1">
          <mxGeometry x="360" y="378" width="48" height="48" as="geometry" />
        </mxCell>
        <mxCell id="fFKoHXhiIrBONr0l0UaM-16" value="" style="shape=image;verticalLabelPosition=bottom;verticalAlign=top;imageAspect=0;aspect=fixed;image=data:image/svg+xml,PHN2ZyB4bWxucz0iaHR0cDovL3d3dy53My5vcmcvMjAwMC9zdmciIHZlcnNpb249IjEiIHZpZXdCb3g9IjAgMCA0OCA0OCIgZW5hYmxlLWJhY2tncm91bmQ9Im5ldyAwIDAgNDggNDgiPiYjeGE7ICAgIDxwYXRoIGZpbGw9IiNENTAwMDAiIGQ9Ik0yNCw2QzE0LjEsNiw2LDE0LjEsNiwyNHM4LjEsMTgsMTgsMThzMTgtOC4xLDE4LTE4UzMzLjksNiwyNCw2eiBNMjQsMTBjMy4xLDAsNiwxLjEsOC40LDIuOEwxMi44LDMyLjQgQzExLjEsMzAsMTAsMjcuMSwxMCwyNEMxMCwxNi4zLDE2LjMsMTAsMjQsMTB6IE0yNCwzOGMtMy4xLDAtNi0xLjEtOC40LTIuOGwxOS42LTE5LjZDMzYuOSwxOCwzOCwyMC45LDM4LDI0QzM4LDMxLjcsMzEuNywzOCwyNCwzOCB6Ii8+JiN4YTs8L3N2Zz4=" vertex="1" parent="1">
          <mxGeometry x="410" y="381" width="48" height="48" as="geometry" />
        </mxCell>
        <mxCell id="fFKoHXhiIrBONr0l0UaM-17" value="客体的属性" style="ellipse;whiteSpace=wrap;html=1;aspect=fixed;verticalAlign=bottom;spacingBottom=7;" vertex="1" parent="1">
          <mxGeometry x="570" y="179" width="130" height="130" as="geometry" />
        </mxCell>
        <mxCell id="fFKoHXhiIrBONr0l0UaM-19" value="" style="shape=image;verticalLabelPosition=bottom;verticalAlign=top;imageAspect=0;aspect=fixed;image=data:image/svg+xml,PHN2ZyB4bWxucz0iaHR0cDovL3d3dy53My5vcmcvMjAwMC9zdmciIHZlcnNpb249IjEiIHZpZXdCb3g9IjAgMCA0OCA0OCIgZW5hYmxlLWJhY2tncm91bmQ9Im5ldyAwIDAgNDggNDgiPiYjeGE7ICAgIDxyZWN0IHg9IjciIHk9IjQiIGZpbGw9IiNCQkRFRkIiIHdpZHRoPSIzNCIgaGVpZ2h0PSI0MCIvPiYjeGE7ICAgIDxnIGZpbGw9IiMyMTk2RjMiPiYjeGE7ICAgICAgICA8cmVjdCB4PSIxMyIgeT0iMjYiIHdpZHRoPSI0IiBoZWlnaHQ9IjQiLz4mI3hhOyAgICAgICAgPHJlY3QgeD0iMTMiIHk9IjE4IiB3aWR0aD0iNCIgaGVpZ2h0PSI0Ii8+JiN4YTsgICAgICAgIDxyZWN0IHg9IjEzIiB5PSIzNCIgd2lkdGg9IjQiIGhlaWdodD0iNCIvPiYjeGE7ICAgICAgICA8cmVjdCB4PSIxMyIgeT0iMTAiIHdpZHRoPSI0IiBoZWlnaHQ9IjQiLz4mI3hhOyAgICAgICAgPHJlY3QgeD0iMjEiIHk9IjI2IiB3aWR0aD0iMTQiIGhlaWdodD0iNCIvPiYjeGE7ICAgICAgICA8cmVjdCB4PSIyMSIgeT0iMTgiIHdpZHRoPSIxNCIgaGVpZ2h0PSI0Ii8+JiN4YTsgICAgICAgIDxyZWN0IHg9IjIxIiB5PSIzNCIgd2lkdGg9IjE0IiBoZWlnaHQ9IjQiLz4mI3hhOyAgICAgICAgPHJlY3QgeD0iMjEiIHk9IjEwIiB3aWR0aD0iMTQiIGhlaWdodD0iNCIvPiYjeGE7ICAgIDwvZz4mI3hhOzwvc3ZnPg==" vertex="1" parent="1">
          <mxGeometry x="644" y="220" width="48" height="48" as="geometry" />
        </mxCell>
        <mxCell id="fFKoHXhiIrBONr0l0UaM-21" value="" style="edgeStyle=orthogonalEdgeStyle;rounded=0;orthogonalLoop=1;jettySize=auto;html=1;" edge="1" parent="1" target="fFKoHXhiIrBONr0l0UaM-5">
          <mxGeometry relative="1" as="geometry">
            <mxPoint x="570" y="244" as="sourcePoint" />
          </mxGeometry>
        </mxCell>
        <mxCell id="fFKoHXhiIrBONr0l0UaM-20" value="" style="shape=image;verticalLabelPosition=bottom;verticalAlign=top;imageAspect=0;aspect=fixed;image=data:image/svg+xml,PHN2ZyB4bWxucz0iaHR0cDovL3d3dy53My5vcmcvMjAwMC9zdmciIHZlcnNpb249IjEiIHZpZXdCb3g9IjAgMCA0OCA0OCIgZW5hYmxlLWJhY2tncm91bmQ9Im5ldyAwIDAgNDggNDgiPiYjeGE7ICAgIDxyZWN0IHg9IjEyIiB5PSI0NCIgZmlsbD0iIzI2MzIzOCIgd2lkdGg9IjQiIGhlaWdodD0iMiIvPiYjeGE7ICAgIDxyZWN0IHg9IjMyIiB5PSI0NCIgZmlsbD0iIzI2MzIzOCIgd2lkdGg9IjQiIGhlaWdodD0iMiIvPiYjeGE7ICAgIDxwYXRoIGZpbGw9IiM2MDdEOEIiIGQ9Ik04LDQxVjdjMC0yLjIsMS44LTQsNC00aDI0YzIuMiwwLDQsMS44LDQsNHYzNGMwLDIuMi0xLjgsNC00LDRIMTJDOS44LDQ1LDgsNDMuMiw4LDQxeiIvPiYjeGE7ICAgIDxwYXRoIGZpbGw9IiNCMEJFQzUiIGQ9Ik0xMiwxN1Y4YzAtMC42LDAuNC0xLDEtMWgyMmMwLjYsMCwxLDAuNCwxLDF2OUgxMnoiLz4mI3hhOyAgICA8cmVjdCB4PSIxMiIgeT0iMTkiIGZpbGw9IiNCMEJFQzUiIHdpZHRoPSIyNCIgaGVpZ2h0PSIxMCIvPiYjeGE7ICAgIDxwYXRoIGZpbGw9IiNCMEJFQzUiIGQ9Ik0xMiw0MHYtOWgyNHY5YzAsMC42LTAuNCwxLTEsMUgxM0MxMi40LDQxLDEyLDQwLjYsMTIsNDB6Ii8+JiN4YTsgICAgPHJlY3QgeD0iMjAiIHk9IjExIiBmaWxsPSIjNTQ2RTdBIiB3aWR0aD0iOCIgaGVpZ2h0PSIyIi8+JiN4YTsgICAgPHJlY3QgeD0iMjAiIHk9IjIzIiBmaWxsPSIjNTQ2RTdBIiB3aWR0aD0iOCIgaGVpZ2h0PSIyIi8+JiN4YTsgICAgPHJlY3QgeD0iMjAiIHk9IjM1IiBmaWxsPSIjNTQ2RTdBIiB3aWR0aD0iOCIgaGVpZ2h0PSIyIi8+JiN4YTs8L3N2Zz4=" vertex="1" parent="1">
          <mxGeometry x="585" y="220" width="48" height="48" as="geometry" />
        </mxCell>
      </root>
    </mxGraphModel>
  </diagram>
</mxfile>
